# xmcd CD database file
#
# Track frame offsets:
#	150
#	27987
#	54122
#	68198
#	91027
#	112934
#	130360
#	153348
#	167748
#	193235
#	213931
#	227094
#
# Disc length: 3204 seconds
#
# Revision: 0
# Processed by: cddbd v1.5.1PL2 Copyright (c) Steve Scherf et al.
# Submitted via: CDex 1.50
#
DISCID=980c820c
DTITLE=Buddy Rich - Argo, Emarcy and Verve Small Group Sess Disc 6
DYEAR=2006
DGENRE=Jazz
TTITLE0=Playtime
TTITLE1=Marbles
TTITLE2=The Night Is Young And You're So Beautiful
TTITLE3=Little Susie
TTITLE4=R.B.
TTITLE5=Angel Eyes
TTITLE6=The Be Bop Irishman
TTITLE7=Foxy
TTITLE8=The Surrey With The Fringe On Top
TTITLE9=The Way You Look Tonight
TTITLE10=Doxy
TTITLE11=Mountain Greenery
EXTD=YEAR: 2006
EXTT0=
EXTT1=
EXTT2=
EXTT3=
EXTT4=
EXTT5=
EXTT6=
EXTT7=
EXTT8=
EXTT9=
EXTT10=
EXTT11=
PLAYORDER=
